<svg width="40" height="40" viewBox="0 0 40 40" fill="none" xmlns="http://www.w3.org/2000/svg">
<g clip-path="url(#clip0_258_187)">
<path d="M7.12639 29.8664L8.48242 32.1767L20.4189 26.1834L32.3551 32.1767L33.7113 29.8664L21.7749 23.8731V9.74372H19.0796V23.8731L7.12639 29.8664ZM2.8909 32.2604C2.8909 32.9468 3.1755 33.4491 3.77818 33.7838L7.12639 35.7426C7.56166 36.0104 7.86301 36.0607 8.44894 35.7258L11.7135 33.8341C12.3161 33.4993 12.4333 33.2147 12.4166 32.6623L12.4333 28.7783C12.4333 28.1087 12.132 27.6231 11.5628 27.2884L8.19782 25.3297C7.76255 25.0953 7.39425 25.0116 6.82505 25.3297L3.51032 27.2548C2.94113 27.573 2.85742 27.9078 2.85742 28.3766L2.8909 32.2604ZM28.3206 32.679C28.3039 33.2314 28.421 33.516 29.0237 33.8508L32.2883 35.7426C32.8741 36.0774 33.1756 36.0273 33.6107 35.7593L36.959 33.8007C37.5617 33.4658 37.8463 32.9636 37.8463 32.2773L37.8797 28.3933C37.8797 27.9246 37.796 27.5897 37.2269 27.2716L33.9121 25.3464C33.3429 25.0283 32.9746 25.112 32.5393 25.3464L29.1744 27.3051C28.6051 27.64 28.3039 28.1254 28.3039 28.795L28.3206 32.679ZM16.1498 12.6064L19.5316 14.5484C20.1007 14.8665 20.6531 14.8665 21.2224 14.5484L24.6041 12.6064C25.0729 12.3386 25.2737 12.0875 25.2737 11.4011V7.6176C25.2737 6.94796 25.0729 6.71359 24.6376 6.46248L21.2559 4.53725C20.6531 4.20243 20.084 4.20243 19.498 4.53725L16.1164 6.46248C15.6978 6.69685 15.4635 6.94796 15.4635 7.6176V11.4011C15.4635 12.0875 15.7146 12.3553 16.1498 12.6064Z" fill="#9EFF00"/>
</g>
<defs>
<clipPath id="clip0_258_187">
<rect width="35.0223" height="31.7579" fill="white" transform="translate(2.85742 4.28613)"/>
</clipPath>
</defs>
</svg>
