<svg width="40" height="40" viewBox="0 0 40 40" fill="none" xmlns="http://www.w3.org/2000/svg">
<g clip-path="url(#clip0_258_169)">
<path d="M5.71966 19.9333C5.71966 18.4099 5.95403 16.9367 6.38931 15.5806L3.76095 14.4757C3.19176 16.2001 2.85693 18.0249 2.85693 19.9333C2.85693 21.825 3.19176 23.6666 3.77769 25.3909L6.38931 24.286C5.95403 22.93 5.71966 21.4567 5.71966 19.9333ZM13.4205 7.24358L12.3491 4.66545C9.03439 6.32282 6.30559 9.05162 4.64823 12.3664L7.25983 13.4545C8.59912 10.7927 10.7755 8.61635 13.4205 7.24358ZM19.9161 5.70341C21.4395 5.70341 22.9128 5.93778 24.3022 6.38979L25.3736 3.77818C23.6494 3.19224 21.8078 2.85742 19.9161 2.85742C18.0244 2.85742 16.1661 3.19224 14.4418 3.77818L15.5467 6.38979C16.9194 5.93778 18.3926 5.70341 19.9161 5.70341ZM32.6058 13.4378L35.2006 12.3664C33.5266 9.05162 30.7978 6.32282 27.4831 4.64872L26.4116 7.24358C29.0566 8.59961 31.2498 10.776 32.6058 13.4378ZM34.1628 19.9333C34.1628 21.4567 33.9284 22.93 33.4931 24.3027L36.0879 25.4077C36.6739 23.6833 37.0086 21.825 37.0086 19.9333C37.0086 18.0249 36.6739 16.1833 36.0879 14.459L33.4764 15.5639C33.9284 16.9367 34.1628 18.4099 34.1628 19.9333ZM26.4116 32.6063L27.4831 35.2179C30.8145 33.5439 33.5434 30.815 35.1839 27.5003L32.6225 26.4289C31.2665 29.0907 29.0735 31.2503 26.4116 32.6063ZM19.9328 34.1633C18.3926 34.1633 16.9194 33.9289 15.5467 33.4769L14.4585 36.0884C16.1828 36.6744 18.0411 37.0091 19.9328 37.0091C21.8245 37.0091 23.6661 36.6744 25.3736 36.1051L24.2855 33.4936C22.9128 33.9288 21.4562 34.1633 19.9328 34.1633ZM7.25983 26.4289L4.66496 27.5003C6.33908 30.815 9.03439 33.5439 12.3491 35.2011L13.4205 32.5896C10.7755 31.2336 8.59912 29.074 7.25983 26.4289ZM19.8994 31.6186C26.4116 31.6186 31.6014 26.4289 31.5846 19.9333C31.5679 13.4378 26.3781 8.24805 19.8826 8.24805C13.3871 8.24805 8.23082 13.421 8.23082 19.9333C8.23082 26.4456 13.4038 31.6186 19.8994 31.6186Z" fill="#9EFF00"/>
</g>
<defs>
<clipPath id="clip0_258_169">
<rect width="34.1517" height="34.1686" fill="white" transform="translate(2.85693 2.85742)"/>
</clipPath>
</defs>
</svg>
