<svg width="41" height="40" viewBox="0 0 41 40" fill="none" xmlns="http://www.w3.org/2000/svg">
<path d="M1.92871 34.119C1.92871 34.9226 2.46443 35.4416 3.268 35.4416H36.566C37.3026 35.4416 37.922 34.8556 37.922 34.1023C37.922 33.3657 37.3026 32.763 36.566 32.763H5.09277C4.74121 32.763 4.62403 32.6458 4.62403 32.2943V5.82658C4.62403 5.10672 4.02134 4.4873 3.28474 4.4873C2.53139 4.4873 1.92871 5.10672 1.92871 5.82658V34.119ZM3.68653 23.7061L14.451 17.4784L22.2021 24.1246L35.98 15.9215L34.9254 14.2139L22.3361 21.7138L14.6184 15.1011L3.68653 21.4126V23.7061ZM14.2334 19.7384C15.874 19.7384 17.2133 18.3991 17.2133 16.7585C17.2133 15.1179 15.874 13.7953 14.2334 13.7953C12.5928 13.7953 11.2535 15.1179 11.2535 16.7585C11.2535 18.3991 12.5928 19.7384 14.2334 19.7384ZM22.1351 25.8824C23.7759 25.8824 25.0984 24.5431 25.0984 22.9024C25.0984 21.2618 23.7759 19.9393 22.1351 19.9393C20.4946 19.9393 19.1553 21.2618 19.1553 22.9024C19.1553 24.5431 20.4946 25.8824 22.1351 25.8824ZM34.758 18.2652C36.3986 18.2652 37.7379 16.9259 37.7379 15.2853C37.7379 13.6447 36.3986 12.3054 34.758 12.3054C33.1173 12.3054 31.778 13.6447 31.778 15.2853C31.778 16.9259 33.1173 18.2652 34.758 18.2652Z" fill="#9EFF00"/>
</svg>
