<svg width="40" height="40" viewBox="0 0 40 40" fill="none" xmlns="http://www.w3.org/2000/svg">
<path d="M21.7174 6.51784C22.4805 6.51784 23.0611 5.93721 23.0611 5.17411C23.0611 4.42759 22.4805 3.84696 21.7174 3.84696H9.57401L12.2117 6.51784H21.7174ZM26.379 11.2624C27.1255 11.2624 27.7227 10.6652 27.7227 9.90206C27.7227 9.15554 27.1255 8.5915 26.379 8.5915H14.2024L16.8401 11.2624H26.379ZM30.941 15.9903C31.6876 15.9903 32.2683 15.3931 32.2683 14.63C32.2683 13.8835 31.6876 13.3195 30.941 13.3195H18.8309L21.4685 15.9903H30.941ZM35.5529 18.0475H23.4593C24.4546 19.0594 24.9025 19.6732 24.9689 20.7183H35.5529C36.2994 20.7183 36.8966 20.1376 36.8966 19.3746C36.8966 18.628 36.2994 18.0475 35.5529 18.0475ZM20.2077 34.4377L14.2522 20.5193L13.4559 21.8796L21.7174 22.344C22.8289 22.4104 23.3598 21.2159 22.5635 20.4031L6.14002 3.61471C5.41009 2.86819 4.28202 3.28292 4.28202 4.32805L4 27.6859C4 28.8304 5.27738 29.295 6.00731 28.4489L11.3491 22.5431L9.80626 22.145L15.5628 36.3786C15.795 36.9426 16.3756 37.2081 16.8899 36.9759L19.7433 35.798C20.2741 35.5989 20.4566 34.9851 20.2077 34.4377Z" fill="#9EFF00"/>
</svg>
