<svg width="41" height="40" viewBox="0 0 41 40" fill="none" xmlns="http://www.w3.org/2000/svg">
<g clip-path="url(#clip0_258_372)">
<path d="M14.3852 36.1387C14.6865 36.1387 14.9042 35.921 14.9544 35.603C15.4901 31.1331 15.7077 31.0158 20.2613 30.2793C20.6129 30.2123 20.8304 30.0449 20.8304 29.7101C20.8304 29.392 20.6129 29.1911 20.3283 29.1409C15.7412 28.2704 15.4901 28.2871 14.9544 23.8173C14.9042 23.4991 14.6865 23.2816 14.3852 23.2816C14.0671 23.2816 13.8495 23.4991 13.816 23.8006C13.2301 28.3373 13.0794 28.488 8.44211 29.1409C8.15751 29.1744 7.93987 29.392 7.93987 29.7101C7.93987 30.0281 8.15751 30.2123 8.44211 30.2793C13.0794 31.1666 13.2133 31.1666 13.816 35.6364C13.8495 35.921 14.0671 36.1387 14.3852 36.1387ZM6.43317 21.5571C6.66755 21.5571 6.80148 21.3899 6.8517 21.1721C7.4209 17.9914 7.43764 17.7904 10.8026 17.2213C11.0202 17.171 11.1876 17.0371 11.1876 16.8027C11.1876 16.5684 11.0202 16.4177 10.8026 16.3842C7.43764 15.7983 7.4209 15.5974 6.8517 12.4166C6.80148 12.1989 6.66755 12.0483 6.43317 12.0483C6.1988 12.0483 6.06487 12.1989 6.01465 12.4166C5.44545 15.5974 5.42871 15.7983 2.06376 16.3842C1.84612 16.4177 1.67871 16.5684 1.67871 16.8027C1.67871 17.0371 1.84612 17.171 2.06376 17.2213C5.42871 17.7904 5.44545 17.9914 6.01465 21.1721C6.06487 21.3899 6.1988 21.5571 6.43317 21.5571ZM15.6073 10.8429C15.8082 10.8429 15.9086 10.7257 15.9421 10.5416C16.5113 7.86301 16.4779 7.76255 19.2903 7.19336C19.4744 7.15988 19.6084 7.04269 19.6084 6.85854C19.6084 6.65765 19.4744 6.54045 19.2903 6.50698C16.4779 5.93778 16.5113 5.83734 15.9421 3.1755C15.9086 2.99135 15.8082 2.85742 15.6073 2.85742C15.4064 2.85742 15.3059 2.99135 15.2725 3.1755C14.7033 5.83734 14.7367 5.93778 11.9243 6.50698C11.7401 6.54045 11.6062 6.65765 11.6062 6.85854C11.6062 7.04269 11.7401 7.15988 11.9243 7.19336C14.7367 7.76255 14.7033 7.86301 15.2725 10.5416C15.3059 10.7257 15.4064 10.8429 15.6073 10.8429ZM29.4354 16.7525C29.6699 16.7525 29.8037 16.6018 29.854 16.3842C30.4231 13.2034 30.4399 13.0025 33.8049 12.4166C34.0391 12.3831 34.1899 12.2324 34.1899 11.9981C34.1899 11.7637 34.0391 11.6297 33.8049 11.5795C30.4399 11.0103 30.4231 10.8094 29.854 7.62862C29.8037 7.41099 29.6699 7.24358 29.4354 7.24358C29.201 7.24358 29.0671 7.41099 29.0169 7.62862C28.4477 10.8094 28.431 11.0103 25.066 11.5795C24.8484 11.6297 24.681 11.7637 24.681 11.9981C24.681 12.2324 24.8484 12.3831 25.066 12.4166C28.431 13.0025 28.4477 13.2034 29.0169 16.3842C29.0671 16.6018 29.201 16.7525 29.4354 16.7525ZM35.027 35.8709C35.73 36.5907 36.9354 36.5907 37.605 35.8709C38.2914 35.1343 38.2914 33.9959 37.605 33.2927L21.6843 17.3217C20.9811 16.6186 19.7759 16.6186 19.1061 17.3217C18.403 18.0583 18.4199 19.2134 19.1061 19.9166L35.027 35.8709ZM25.2836 24.3697L20.3784 19.4479C20.0771 19.1464 19.9767 18.8117 20.278 18.5271C20.5291 18.2591 20.8807 18.3261 21.1989 18.6443L26.1207 23.5661L25.2836 24.3697Z" fill="#9EFF00"/>
</g>
<defs>
<clipPath id="clip0_258_372">
<rect width="36.4411" height="33.6329" fill="white" transform="translate(1.67871 2.85742)"/>
</clipPath>
</defs>
</svg>
