<svg width="40" height="40" viewBox="0 0 40 40" fill="none" xmlns="http://www.w3.org/2000/svg">
<path d="M19.6374 36.6598C19.9041 36.6598 20.3209 36.5596 20.7377 36.343C30.2238 31.3748 33.2748 28.8907 33.2748 22.9057V10.3353C33.2748 8.61811 32.5411 8.06795 31.1408 7.48443C29.1902 6.6842 22.9551 4.41687 21.0211 3.75C20.571 3.59996 20.1042 3.5166 19.6374 3.5166C19.1706 3.5166 18.7038 3.61663 18.2703 3.75C16.3197 4.38352 10.0845 6.70087 8.13396 7.48443C6.75022 8.05127 6 8.61811 6 10.3353V22.9057C6 28.8907 9.21762 31.0914 18.537 36.343C18.9705 36.5764 19.3706 36.6598 19.6374 36.6598ZM12.1185 20.6383C12.1185 20.4382 12.2185 20.1881 12.4019 19.9715L21.8213 8.1513C22.5382 7.25104 23.7386 7.85122 23.3052 8.96821L20.2042 17.304H26.0226C26.4727 17.304 26.8061 17.6207 26.8061 18.071C26.8061 18.271 26.7061 18.5211 26.5228 18.7378L17.1033 30.5579C16.3864 31.4582 15.2027 30.858 15.6195 29.7577L18.7371 21.4052H12.902C12.4686 21.4052 12.1185 21.0884 12.1185 20.6383Z" fill="#9EFF00"/>
</svg>
