<svg width="40" height="40" viewBox="0 0 40 40" fill="none" xmlns="http://www.w3.org/2000/svg">
<g clip-path="url(#clip0_258_157)">
<path d="M4.46355 23.2699H14.57C16.9361 23.2699 18.3149 21.9222 18.3149 19.5877V9.48112C18.3149 7.14645 16.9361 5.79891 14.57 5.79891H4.46355C2.1132 5.79891 0.75 7.13078 0.75 9.48112V19.5877C0.75 21.938 2.1132 23.2699 4.46355 23.2699ZM24.8332 23.4735H35.1435C37.5878 23.4735 38.9824 22.0947 38.9824 19.713V9.37144C38.9824 6.97408 37.5878 5.59521 35.1435 5.59521H24.8332C22.4045 5.59521 21.0099 6.97408 21.0099 9.37144V19.713C21.0099 22.0947 22.4045 23.4735 24.8332 23.4735ZM24.8646 20.9978C23.9402 20.9978 23.4857 20.5434 23.4857 19.6033V9.46545C23.4857 8.52532 23.9402 8.07092 24.8646 8.07092H35.1121C36.068 8.07092 36.5067 8.52532 36.5067 9.46545V19.6033C36.5067 20.5434 36.068 20.9978 35.1121 20.9978H24.8646ZM1.94084 29.1301C1.29841 29.1301 0.75 29.6942 0.75 30.3992C0.75 31.1043 1.29841 31.6528 1.94084 31.6528H7.00193V29.1301H1.94084ZM9.72833 34.1598C11.7966 34.1598 13.4889 32.4676 13.4889 30.3992C13.4889 28.3153 11.7966 26.623 9.72833 26.623C7.66003 26.623 5.96777 28.3153 5.96777 30.3992C5.96777 32.4676 7.66003 34.1598 9.72833 34.1598ZM9.72833 32.2325C8.69418 32.2325 7.89506 31.4177 7.89506 30.3836C7.89506 29.3494 8.69418 28.5503 9.72833 28.5503C10.7468 28.5503 11.5616 29.3494 11.5616 30.3836C11.5616 31.4177 10.7468 32.2325 9.72833 32.2325ZM12.2197 29.1301V31.6528H37.7131C38.4183 31.6528 38.9824 31.1043 38.9824 30.3992C38.9824 29.6942 38.4183 29.1301 37.7131 29.1301H12.2197Z" fill="#9EFF00"/>
</g>
<defs>
<clipPath id="clip0_258_157">
<rect width="38.2324" height="29.16" fill="white" transform="translate(0.75 5)"/>
</clipPath>
</defs>
</svg>
