<svg width="40" height="40" viewBox="0 0 40 40" fill="none" xmlns="http://www.w3.org/2000/svg">
<path fill-rule="evenodd" clip-rule="evenodd" d="M12.5607 10.4396C13.1464 11.0254 13.1464 11.9751 12.5607 12.5609L5.12132 20.0002L12.5607 27.4396C13.1464 28.0254 13.1464 28.9751 12.5607 29.5609C11.9749 30.1467 11.0251 30.1467 10.4393 29.5609L1.93934 21.0609C1.35355 20.4751 1.35355 19.5254 1.93934 18.9396L10.4393 10.4396C11.0251 9.8538 11.9749 9.8538 12.5607 10.4396ZM27.4393 10.4396C28.0251 9.8538 28.9749 9.8538 29.5607 10.4396L38.0607 18.9396C38.6464 19.5254 38.6464 20.4751 38.0607 21.0609L29.5607 29.5609C28.9749 30.1467 28.0251 30.1467 27.4393 29.5609C26.8536 28.9751 26.8536 28.0254 27.4393 27.4396L34.8787 20.0002L27.4393 12.5609C26.8536 11.9751 26.8536 11.0254 27.4393 10.4396Z" fill="#9EFF00"/>
<path fill-rule="evenodd" clip-rule="evenodd" d="M22.7549 4.02205C23.5712 4.16281 24.1189 4.93872 23.9782 5.7551L18.9782 34.7551C18.8374 35.5715 18.0615 36.1192 17.2451 35.9784C16.4288 35.8377 15.8811 35.0618 16.0218 34.2454L21.0218 5.24538C21.1626 4.429 21.9385 3.8813 22.7549 4.02205Z" fill="#9EFF00"/>
</svg>
