<svg width="41" height="40" viewBox="0 0 41 40" fill="none" xmlns="http://www.w3.org/2000/svg">
<g clip-path="url(#clip0_258_294)">
<path d="M5.05331 31.253H36.3758C39.0727 31.253 40.4291 29.9755 40.4291 27.1997V9.12542C40.4291 6.36539 39.0727 5.08789 36.3758 5.08789H5.05331C2.35636 5.08789 1 6.36539 1 9.12542V27.1997C1 29.9755 2.35636 31.253 5.05331 31.253ZM12.7814 36.5997H28.6477C29.3416 36.5997 29.9252 36.0318 29.9252 35.322C29.9252 34.6124 29.3416 34.0446 28.6477 34.0446H12.7814C12.0874 34.0446 11.5039 34.6124 11.5039 35.322C11.5039 36.0318 12.0874 36.5997 12.7814 36.5997ZM21.5346 24.7078C21.1877 24.7078 20.9668 24.5028 20.9196 24.1716C20.2257 19.4242 19.6105 18.3676 14.6267 17.8629C14.2955 17.8156 14.0904 17.579 14.0904 17.2636C14.0904 16.9639 14.2955 16.7116 14.6267 16.6643C19.5947 16.0019 20.0206 15.1344 20.9196 10.3398C20.9984 10.0244 21.2192 9.81938 21.5346 9.81938C21.8344 9.81938 22.0708 10.0402 22.1182 10.3556C22.828 15.0556 23.4745 16.0019 28.4268 16.6643C28.7423 16.7116 28.963 16.9639 28.963 17.2636C28.963 17.579 28.7423 17.8156 28.4268 17.8629C23.4588 18.5254 23.0172 19.4242 22.1182 24.1873C22.0551 24.5028 21.8344 24.7078 21.5346 24.7078ZM15.1314 27.3732C14.879 27.3732 14.7529 27.1997 14.6741 26.9474C14.2008 24.6289 14.4059 24.5185 11.8509 24.14C11.5828 24.0927 11.4408 23.935 11.4408 23.6826C11.4408 23.4618 11.5828 23.2726 11.8193 23.2411C14.4059 22.8152 14.2008 22.7047 14.6741 20.4021C14.7529 20.1498 14.8948 19.9763 15.1314 19.9763C15.368 19.9763 15.5257 20.1655 15.5887 20.4021C16.0304 22.7047 15.8727 22.8152 18.4592 23.2411C18.68 23.2726 18.8377 23.4618 18.8377 23.6826C18.8377 23.9035 18.68 24.0927 18.4592 24.14C15.8727 24.5185 16.0304 24.6289 15.5887 26.9946C15.5257 27.2155 15.3522 27.3732 15.1314 27.3732Z" fill="#9EFF00"/>
</g>
<defs>
<clipPath id="clip0_258_294">
<rect width="40" height="40" fill="white" transform="translate(0.75)"/>
</clipPath>
</defs>
</svg>
