<svg width="41" height="40" viewBox="0 0 41 40" fill="none" xmlns="http://www.w3.org/2000/svg">
<path d="M4.84849 22.026C5.81948 22.026 6.58956 21.2559 6.58956 20.3016C6.58956 19.3306 5.81948 18.5606 4.84849 18.5606C3.87751 18.5606 3.10742 19.3306 3.10742 20.3016C3.10742 21.2559 3.87751 22.026 4.84849 22.026ZM8.79939 10.2905C9.77036 10.2905 10.5405 9.50362 10.5405 8.54939C10.5405 7.57841 9.77036 6.80831 8.79939 6.80831C7.84515 6.80831 7.05831 7.57841 7.05831 8.54939C7.05831 9.50362 7.84515 10.2905 8.79939 10.2905ZM20.5684 6.33956C21.5226 6.33956 22.2927 5.56948 22.2927 4.59849C22.2927 3.64425 21.5226 2.85742 20.5684 2.85742C19.5974 2.85742 18.8273 3.64425 18.8273 4.59849C18.8273 5.56948 19.5974 6.33956 20.5684 6.33956ZM32.3206 10.2905C33.2916 10.2905 34.0617 9.50362 34.0617 8.54939C34.0617 7.57841 33.2916 6.80831 32.3206 6.80831C31.3496 6.80831 30.5796 7.57841 30.5796 8.54939C30.5796 9.50362 31.3496 10.2905 32.3206 10.2905ZM36.2883 22.026C37.2424 22.026 38.0126 21.2559 38.0126 20.3016C38.0126 19.3306 37.2424 18.5606 36.2883 18.5606C35.3173 18.5606 34.5471 19.3306 34.5471 20.3016C34.5471 21.2559 35.3173 22.026 36.2883 22.026ZM33.4256 34.3474C34.1621 34.3474 34.7983 33.7447 34.7983 33.0081C34.7983 32.2547 34.1621 31.6353 33.4256 31.6353H31.3831V20.536C31.3831 14.4255 26.6621 9.70452 20.5684 9.70452C14.4579 9.70452 9.77037 14.4255 9.77037 20.536V31.6353H7.69448C6.95786 31.6353 6.37194 32.2547 6.37194 33.0081C6.37194 33.7447 6.95786 34.3474 7.69448 34.3474H33.4256ZM21.9746 20.5863V31.6353H19.1789V20.5863C19.1789 19.8161 19.7983 19.18 20.5684 19.18C21.3384 19.18 21.9746 19.8161 21.9746 20.5863Z" fill="#9EFF00"/>
</svg>
