<svg width="146" height="50" viewBox="0 0 146 50" fill="none" xmlns="http://www.w3.org/2000/svg">
<g clip-path="url(#clip0_204_5070)">
<path d="M21.9526 3.20703C9.87136 3.20703 0.0771484 13.001 0.0771484 25.0822C0.0771484 37.1639 9.87136 46.957 21.9526 46.957C34.0351 46.957 43.8282 37.1639 43.8282 25.0822C43.8282 13.0018 34.0351 3.20808 21.9523 3.20808L21.9526 3.20703ZM31.9845 34.7572C31.5926 35.3999 30.7515 35.6036 30.1089 35.2092C24.9728 32.0719 18.5071 31.3614 10.8925 33.1011C10.1587 33.2683 9.42729 32.8085 9.2601 32.0745C9.09214 31.3405 9.55006 30.6091 10.2857 30.4419C18.6186 28.5381 25.7664 29.3578 31.5326 32.8817C32.1752 33.2761 32.3789 34.1146 31.9845 34.7572ZM34.662 28.8009C34.1683 29.6034 33.1182 29.8568 32.3162 29.363C26.4362 25.7488 17.4729 24.7021 10.5179 26.8133C9.61589 27.0857 8.66321 26.5774 8.38945 25.677C8.11778 24.775 8.62638 23.8241 9.52681 23.5498C17.4713 21.1393 27.3478 22.307 34.1004 26.4564C34.9023 26.9501 35.1557 28.0003 34.662 28.8012V28.8009ZM34.8919 22.5985C27.8415 18.4109 16.2094 18.0258 9.47796 20.0688C8.39703 20.3967 7.25393 19.7864 6.92636 18.7055C6.59879 17.6241 7.20848 16.4817 8.29019 16.1531C16.0174 13.8074 28.8629 14.2606 36.9801 19.0793C37.9544 19.6564 38.2731 20.912 37.6958 21.883C37.1211 22.8553 35.862 23.1758 34.8929 22.5985H34.8919ZM59.5929 23.4009C55.8156 22.5003 55.1443 21.8681 55.1443 20.5398C55.1443 19.2849 56.325 18.4404 58.083 18.4404C59.7862 18.4404 61.4737 19.0817 63.2448 20.4019C63.297 20.4418 63.3649 20.4578 63.4302 20.4473C63.4981 20.4374 63.5556 20.4011 63.5948 20.3465L65.439 17.7468C65.5148 17.6397 65.4939 17.4921 65.392 17.4104C63.2839 15.7195 60.9121 14.8974 58.1379 14.8974C54.0602 14.8974 51.2103 17.3448 51.2103 20.8465C51.2103 24.6015 53.6684 25.9311 57.9159 26.9575C61.5285 27.79 62.1398 28.4874 62.1398 29.734C62.1398 31.1158 60.9068 31.9752 58.9216 31.9752C56.7169 31.9752 54.917 31.2308 52.9057 29.491C52.856 29.4466 52.7881 29.4283 52.7254 29.431C52.6575 29.4362 52.5974 29.4675 52.5556 29.5172L50.4867 31.9779C50.4005 32.0823 50.411 32.2339 50.5103 32.3227C52.8508 34.4124 55.7294 35.5148 58.838 35.5148C63.2317 35.5148 66.0712 33.1142 66.0712 29.397C66.079 26.2605 64.2008 24.5234 59.6007 23.4043L59.5929 23.4009ZM76.0132 19.6759C74.1089 19.6759 72.5468 20.4262 71.2564 21.9634V20.2331C71.2564 20.0965 71.1467 19.9852 71.0109 19.9852H67.6281C67.4922 19.9852 67.3825 20.0965 67.3825 20.2331V39.4592C67.3825 39.5951 67.4922 39.7074 67.6281 39.7074H71.0109C71.1467 39.7074 71.2564 39.5951 71.2564 39.4592V33.3911C72.5468 34.8356 74.1089 35.5435 76.0132 35.5435C79.5528 35.5435 83.1367 32.819 83.1367 27.6105C83.142 22.401 79.558 19.6757 76.0159 19.6757L76.0132 19.6759ZM79.2027 27.6105C79.2027 30.2616 77.5701 32.1137 75.2296 32.1137C72.9178 32.1137 71.1728 30.1781 71.1728 27.6105C71.1728 25.0427 72.9178 23.1076 75.2296 23.1076C77.5309 23.1073 79.2027 25.0007 79.2027 27.6103V27.6105ZM92.3186 19.6759C87.7603 19.6759 84.1895 23.1857 84.1895 27.6672C84.1895 32.1006 87.7368 35.5723 92.2638 35.5723C96.8378 35.5723 100.419 32.0745 100.419 27.6105C100.419 23.1617 96.8613 19.6765 92.3186 19.6765V19.6759ZM92.3186 32.1398C89.8945 32.1398 88.066 30.1911 88.066 27.6092C88.066 25.0156 89.8318 23.1335 92.2638 23.1335C94.7036 23.1335 96.5426 25.0814 96.5426 27.6659C96.5426 30.259 94.7663 32.1398 92.3186 32.1398ZM110.152 19.9852H106.43V16.1803C106.43 16.0439 106.32 15.9327 106.184 15.9327H102.801C102.666 15.9327 102.553 16.0439 102.553 16.1803V19.9852H100.928C100.793 19.9852 100.683 20.0965 100.683 20.2331V23.1397C100.683 23.2761 100.793 23.3876 100.928 23.3876H102.553V30.9095C102.553 33.9475 104.066 35.4887 107.051 35.4887C108.264 35.4887 109.269 35.2379 110.217 34.6998C110.296 34.658 110.343 34.5744 110.343 34.4856V31.7166C110.343 31.6331 110.298 31.5521 110.225 31.5077C110.152 31.4606 110.061 31.458 109.985 31.4972C109.335 31.8237 108.705 31.9752 108 31.9752C106.916 31.9752 106.43 31.4815 106.43 30.3792V23.3889H110.152C110.288 23.3889 110.398 23.2776 110.398 23.141V20.2347C110.403 20.0981 110.293 19.9868 110.155 19.9868L110.152 19.9852ZM123.119 20.0001V19.5328C123.119 18.158 123.647 17.5449 124.828 17.5449C125.533 17.5449 126.1 17.6849 126.734 17.8965C126.813 17.9211 126.894 17.9088 126.957 17.862C127.022 17.8153 127.058 17.7403 127.058 17.6609V14.811C127.058 14.702 126.99 14.6057 126.883 14.5735C126.215 14.3742 125.358 14.1697 124.073 14.1697C120.951 14.1697 119.298 15.9287 119.298 19.2549V19.9706H117.673C117.537 19.9706 117.425 20.0819 117.425 20.2182V23.1397C117.425 23.2761 117.537 23.3876 117.673 23.3876H119.298V34.9871C119.298 35.1256 119.41 35.2353 119.546 35.2353H122.926C123.064 35.2353 123.174 35.1256 123.174 34.9871V23.3884H126.332L131.17 34.9871C130.621 36.2044 130.081 36.4473 129.344 36.4473C128.748 36.4473 128.119 36.2697 127.479 35.9171C127.419 35.8857 127.346 35.8805 127.283 35.8988C127.218 35.9223 127.163 35.9693 127.137 36.032L125.99 38.5476C125.935 38.6677 125.982 38.8062 126.097 38.8689C127.293 39.5167 128.372 39.7936 129.707 39.7936C132.204 39.7936 133.586 38.6285 134.801 35.4991L140.668 20.3387C140.699 20.2624 140.689 20.1762 140.642 20.1085C140.597 20.0414 140.522 20.0009 140.441 20.0009H136.919C136.812 20.0009 136.718 20.068 136.684 20.167L133.077 30.468L129.127 20.1602C129.091 20.0644 128.999 20.0009 128.897 20.0009H123.119V20.0001ZM115.601 19.9852H112.218C112.083 19.9852 111.97 20.0965 111.97 20.2331V34.9871C111.97 35.1256 112.083 35.2353 112.218 35.2353H115.601C115.737 35.2353 115.849 35.1256 115.849 34.9871V20.2342C115.849 20.0976 115.74 19.9863 115.601 19.9863V19.9852ZM113.929 13.2669C112.589 13.2669 111.503 14.3515 111.503 15.6913C111.503 17.0319 112.589 18.1178 113.929 18.1178C115.269 18.1178 116.354 17.0319 116.354 15.6913C116.354 14.3517 115.267 13.2669 113.929 13.2669ZM143.557 24.7293C142.22 24.7293 141.177 23.6543 141.177 22.349C141.177 21.0437 142.233 19.9565 143.57 19.9565C144.908 19.9565 145.95 21.0312 145.95 22.3354C145.95 23.6407 144.895 24.7293 143.557 24.7293ZM143.57 20.1932C142.35 20.1932 141.428 21.1623 141.428 22.349C141.428 23.5352 142.345 24.4913 143.557 24.4913C144.777 24.4913 145.699 23.5229 145.699 22.3354C145.699 21.1492 144.782 20.1932 143.57 20.1932ZM144.098 22.5802L144.772 23.5227H144.202L143.596 22.658H143.076V23.5227H142.601V21.0244H143.714C144.296 21.0244 144.678 21.3214 144.678 21.8213C144.68 22.2309 144.443 22.4812 144.1 22.5802H144.098ZM143.696 21.453H143.076V22.2432H143.696C144.004 22.2432 144.189 22.092 144.189 21.8477C144.189 21.5907 144.004 21.453 143.696 21.453Z" fill="#E6E6E6"/>
</g>
<defs>
<clipPath id="clip0_204_5070">
<rect width="145.833" height="50" fill="white"/>
</clipPath>
</defs>
</svg>
