<svg width="41" height="40" viewBox="0 0 41 40" fill="none" xmlns="http://www.w3.org/2000/svg">
<path d="M12.7937 26.8919C12.258 26.3394 11.3037 26.3394 10.7345 26.8919L7.28585 30.3239C6.7334 30.8763 6.7334 31.8304 7.26911 32.383C7.82157 32.9354 8.77581 32.9521 9.34501 32.3997L12.7937 28.951C13.3629 28.3986 13.3629 27.4611 12.7937 26.8919ZM9.76354 19.5927C9.76354 18.806 9.09388 18.1363 8.29031 18.1363H3.38518C2.59835 18.1363 1.92871 18.806 1.92871 19.5927C1.92871 20.3796 2.59835 21.0493 3.38518 21.0493H8.29031C9.09388 21.0493 9.76354 20.3796 9.76354 19.5927ZM12.6263 12.143C13.1955 11.5905 13.1955 10.653 12.6263 10.0838L9.19434 6.63518C8.64188 6.08273 7.70438 6.06598 7.13518 6.61844C6.58273 7.1709 6.58273 8.1084 7.13518 8.6776L10.5671 12.143C11.1363 12.7122 12.0738 12.7122 12.6263 12.143ZM20.0927 9.23005C20.8963 9.23005 21.566 8.56041 21.566 7.77358V2.88518C21.566 2.09835 20.8963 1.42871 20.0927 1.42871C19.306 1.42871 18.6363 2.09835 18.6363 2.88518V7.77358C18.6363 8.56041 19.306 9.23005 20.0927 9.23005ZM27.3751 12.3104C27.9443 12.8796 28.8986 12.8796 29.451 12.3104L32.8997 8.86174C33.4689 8.29255 33.4689 7.35505 32.8997 6.78585C32.3473 6.2334 31.4097 6.2334 30.8573 6.78585L27.3751 10.2513C26.8227 10.8205 26.8227 11.758 27.3751 12.3104ZM30.4556 19.5927C30.4556 20.3796 31.1251 21.0493 31.912 21.0493H36.8004C37.604 21.0493 38.2736 20.3796 38.2736 19.5927C38.2736 18.806 37.604 18.1363 36.8004 18.1363H31.912C31.1251 18.1363 30.4556 18.806 30.4556 19.5927ZM18.7703 31.2279C18.7534 31.8807 19.5069 32.0816 19.9421 31.6631L22.4867 29.1017L25.3494 36.1831C25.4834 36.4846 25.8183 36.6519 26.1196 36.518L27.7937 35.8651C28.095 35.7144 28.2121 35.3629 28.0616 35.0616L25.0481 28.0973L28.6641 27.9466C29.2836 27.9131 29.6017 27.3104 29.1497 26.8249L19.9923 17.4331C19.5739 16.9979 18.9376 17.2323 18.9209 17.8517L18.7703 31.2279Z" fill="#9EFF00"/>
</svg>
