<svg width="41" height="40" viewBox="0 0 41 40" fill="none" xmlns="http://www.w3.org/2000/svg">
<path d="M34.2876 23.5163V10.7094C34.2876 8.95158 33.5342 8.3824 32.1112 7.79645C30.1357 6.99288 23.7574 4.56543 21.782 3.99623C21.3299 3.87905 20.8444 3.74512 20.3757 3.74512C19.907 3.74512 19.4215 3.84556 18.9862 3.99623C16.994 4.68261 10.6157 6.97614 8.64021 7.79645C7.23396 8.39914 6.46387 8.95158 6.46387 10.7094V23.5163C6.46387 29.6268 9.72838 31.8868 19.254 37.2273C19.6893 37.4617 20.1078 37.5621 20.3757 37.5621C20.6436 37.5621 21.0789 37.4617 21.4973 37.2273C31.0063 31.8701 34.2876 29.6268 34.2876 23.5163ZM20.0241 34.465C19.8232 34.4147 19.6056 34.2976 19.3378 34.1301C11.6201 29.426 9.1257 28.0698 9.1257 22.8968V11.2284C9.1257 10.6592 9.22614 10.4248 9.6949 10.2574C12.2898 9.37011 17.1782 7.59557 19.7061 6.5911C19.84 6.54087 19.9404 6.5074 20.0241 6.49065V34.465Z" fill="#9EFF00"/>
</svg>
