<svg width="40" height="40" viewBox="0 0 40 40" fill="none" xmlns="http://www.w3.org/2000/svg">
<path d="M4.28613 13.3263C4.28613 14.7995 5.85979 15.1678 6.79729 14.2136L14.2136 6.79729C15.1846 5.84305 14.7995 4.28613 13.3263 4.28613H5.80958C4.87207 4.28613 4.28613 4.92229 4.28613 5.8263V13.3263ZM8.60533 10.7147L29.8163 31.9424L31.9424 29.8497L10.7314 8.60533L8.60533 10.7147ZM36.2783 27.2381C36.2783 25.7481 34.7047 25.3966 33.7504 26.3341L26.3341 33.7504C25.3798 34.7214 25.765 36.2783 27.2381 36.2783H34.7548C35.6924 36.2783 36.2783 35.6254 36.2783 34.7381V27.2381ZM36.2783 13.3263V5.8263C36.2783 4.92229 35.6924 4.28613 34.7548 4.28613H27.2381C25.765 4.28613 25.3798 5.84305 26.3341 6.79729L33.7504 14.2136C34.7047 15.1678 36.2783 14.7995 36.2783 13.3263ZM10.7314 31.9424L31.9591 10.7147L29.833 8.60533L8.60533 29.833L10.7314 31.9424ZM4.28613 27.2381V34.7381C4.28613 35.6254 4.87207 36.2783 5.80958 36.2783H13.3263C14.7995 36.2783 15.1846 34.7214 14.2136 33.7504L6.79729 26.3341C5.85979 25.3966 4.28613 25.7481 4.28613 27.2381Z" fill="#9EFF00"/>
</svg>
