<svg width="41" height="40" viewBox="0 0 41 40" fill="none" xmlns="http://www.w3.org/2000/svg">
<path d="M2.309 37.9074C5.07127 40.6697 9.17284 40.7701 11.8849 37.5391C13.8771 35.1451 18.9161 27.0257 23.2353 22.7064C26.1149 19.827 29.2956 21.3504 32.4931 20.0447L29.6471 9.66519C29.2956 8.37613 29.8146 7.3047 31.3046 6.90292L37.5824 5.22882C37.3816 4.64287 36.8291 3.8393 36.1427 3.13617C32.2756 -0.831457 25.8804 -0.88168 22.0634 2.73439C16.4887 8.04132 20.7241 13.6496 17.0579 17.3159C12.4373 21.9197 6.07574 25.2679 2.6773 28.3147C-0.503501 31.144 -0.486759 35.1116 2.309 37.9074ZM7.04673 35.2289C5.90833 35.2289 4.97083 34.308 4.97083 33.1697C4.97083 32.0313 5.90833 31.0937 7.04673 31.0937C8.18512 31.0937 9.10587 32.0313 9.10587 33.1697C9.10587 34.308 8.18512 35.2289 7.04673 35.2289ZM22.7833 12.8627C22.415 12.9632 22.097 12.779 21.9797 12.3772C21.8793 12.0759 22.0801 11.7076 22.4317 11.6072L26.3491 10.5525C26.6673 10.4688 27.0356 10.6697 27.1193 11.0212C27.2364 11.4063 27.0189 11.7411 26.6673 11.8415L22.7833 12.8627ZM23.2856 14.8549C22.9173 14.9554 22.5991 14.7713 22.4653 14.3694C22.3649 14.0681 22.5824 13.6998 22.934 13.6161L26.8347 12.5447C27.1527 12.4777 27.521 12.6618 27.6214 13.0134C27.7387 13.3985 27.5043 13.7333 27.1527 13.8337L23.2856 14.8549ZM23.771 16.8471C23.4194 16.9476 23.0511 16.7634 22.9843 16.3616C22.9006 16.0269 23.0847 15.7087 23.453 15.6083L27.3369 14.5703C27.7051 14.4531 28.0567 14.6707 28.1237 15.0056C28.2074 15.3404 28.0066 15.7087 27.6884 15.7924L23.771 16.8471ZM34.3347 19.2411C34.9876 18.856 35.6571 18.3539 36.3436 17.7009C38.453 15.7924 39.5411 12.913 39.1059 10.8705L34.0333 12.2601C33.4641 12.4107 32.9786 12.4442 32.4597 12.3605L34.3347 19.2411Z" fill="#9EFF00"/>
</svg>
