<svg width="40" height="40" viewBox="0 0 40 40" fill="none" xmlns="http://www.w3.org/2000/svg">
<path d="M11.2497 22.5C14.7015 22.5 17.4997 25.2982 17.4997 28.75C17.4997 33.5825 13.5822 37.5 8.74972 37.5C5.50558 37.4999 2.67533 35.7335 1.16573 33.1162C0.935358 32.7167 0.943552 32.2226 1.18722 31.8311C1.43091 31.4396 1.87068 31.2139 2.33077 31.2441C2.38661 31.2478 2.44325 31.25 2.49972 31.25C3.88043 31.25 4.99972 30.1307 4.99972 28.75C4.99972 25.2983 7.79809 22.5002 11.2497 22.5ZM16.5495 15.7891C20.0185 17.209 22.7904 19.9804 24.2107 23.4492C23.0352 24.3412 21.7963 25.1541 20.4987 25.875L19.6599 26.3398C18.832 23.4457 16.5542 21.1655 13.6599 20.3379L14.1247 19.501C14.8455 18.2036 15.6576 16.9644 16.5495 15.7891ZM34.3308 2.5C36.0809 2.5 37.4997 3.91878 37.4997 5.66895C37.4997 6.29458 37.3145 6.9062 36.9675 7.42676L31.3239 15.8916C29.7726 18.2186 27.9209 20.3183 25.8249 22.1406C24.2241 18.6161 21.3828 15.7743 17.8581 14.1738C19.6804 12.0778 21.7811 10.2271 24.1081 8.67578L32.573 3.03223C33.0934 2.68526 33.7053 2.50008 34.3308 2.5Z" fill="#9EFF00"/>
</svg>
