<svg width="40" height="40" viewBox="0 0 40 40" fill="none" xmlns="http://www.w3.org/2000/svg">
<g clip-path="url(#clip0_258_285)">
<path d="M5.99455 19.0498C6.35955 19.0076 6.7386 18.9796 7.10361 18.9796C7.49669 18.9796 7.87574 19.0076 8.25478 19.0638V16.0033H5.99455V19.0498ZM5.99455 14.0801H8.25478V11.146C8.25478 9.68593 9.02692 8.94188 10.4308 8.94188H13.3368V6.68164H10.4027C7.46862 6.68164 5.99455 8.12763 5.99455 11.0336V14.0801ZM15.2601 8.94188H21.5915V6.68164H15.2601V8.94188ZM23.5009 8.94188H29.8323V6.68164H23.5009V8.94188ZM39.0979 14.0801V11.0336C39.0979 8.12763 37.6238 6.68164 34.6897 6.68164H31.7556V8.94188H34.6617C36.0656 8.94188 36.8377 9.68593 36.8377 11.146V14.0801H39.0979ZM39.0979 23.2052V16.0033H36.8377V23.2052H39.0979ZM34.6897 32.527C37.6238 32.527 39.0979 31.081 39.0979 28.175V25.1285H36.8377V28.0626C36.8377 29.5227 36.0656 30.2668 34.6617 30.2668H31.7556V32.527H34.6897ZM23.5009 32.527H29.8323V30.2668H23.5009V32.527ZM14.9793 32.513L21.5915 32.527V30.2668H15.8638C15.6812 31.067 15.3865 31.8109 14.9793 32.513ZM7.13168 35.1802C11.0345 35.1802 14.2633 31.9513 14.2633 28.0486C14.2633 24.1599 11.0204 20.9169 7.11765 20.9169C3.22891 20.9169 0 24.1599 0 28.0486C0 31.9513 3.24295 35.1802 7.13168 35.1802ZM7.13168 33.4957C4.11335 33.4957 1.69869 31.067 1.69869 28.0486C1.69869 25.0443 4.11335 22.6015 7.11765 22.6015C10.136 22.6015 12.5647 25.0443 12.5787 28.0486C12.5927 31.067 10.136 33.4957 7.13168 33.4957ZM7.11765 32.2743C9.44808 32.2743 11.3433 30.365 11.3433 28.0626C11.3433 25.7462 9.43404 23.837 7.11765 23.837C4.80125 23.837 2.90602 25.7462 2.90602 28.0626C2.90602 30.365 4.81529 32.2743 7.11765 32.2743Z" fill="#9EFF00"/>
</g>
<defs>
<clipPath id="clip0_258_285">
<rect width="39.0979" height="31.18" fill="white" transform="translate(0 4)"/>
</clipPath>
</defs>
</svg>
