<svg width="40" height="40" viewBox="0 0 40 40" fill="none" xmlns="http://www.w3.org/2000/svg">
<path d="M10.3516 39.1463H29.0514C31.8304 39.1463 33.6886 37.3719 33.6886 34.7267V5.8651C33.6886 3.22001 31.8304 1.42871 29.0514 1.42871H10.3516C7.57261 1.42871 5.71436 3.22001 5.71436 5.8651V34.7267C5.71436 37.3719 7.57261 39.1463 10.3516 39.1463ZM10.6865 36.451C9.24673 36.451 8.40967 35.6474 8.40967 34.2747V6.31711C8.40967 4.94434 9.24673 4.12403 10.6865 4.12403H28.7166C30.1396 4.12403 30.9934 4.94434 30.9934 6.31711V34.2747C30.9934 35.6474 30.1396 36.451 28.7166 36.451H10.6865ZM13.2813 16.8473H26.1385C27.0258 16.8473 27.6284 16.2613 27.6284 15.3238V11.7077C27.6284 10.7702 27.0258 10.1843 26.1385 10.1843H13.2813C12.394 10.1843 11.7914 10.7702 11.7914 11.7077V15.3238C11.7914 16.2613 12.394 16.8473 13.2813 16.8473ZM13.2813 30.3573H26.1385C27.0258 30.3573 27.6284 29.7546 27.6284 28.8339V25.201C27.6284 24.2803 27.0258 23.6776 26.1385 23.6776H13.2813C12.394 23.6776 11.7914 24.2803 11.7914 25.201V28.8339C11.7914 29.7546 12.394 30.3573 13.2813 30.3573Z" fill="#9EFF00"/>
</svg>
