<svg width="103" height="50" viewBox="0 0 103 50" fill="none" xmlns="http://www.w3.org/2000/svg">
<path fill-rule="evenodd" clip-rule="evenodd" d="M83.0284 21.4581C83.4182 22.1306 83.5457 22.8958 83.5878 23.756L83.6432 24.9025V32.92L83.6997 34.0678C83.8128 35.9422 85.1952 37.3282 87.084 37.4461L88.2258 37.5026V24.9025L88.2823 23.756C88.3292 22.9054 88.4556 22.1258 88.8514 21.4484C89.2547 20.7537 89.8337 20.1773 90.5303 19.7771C91.2269 19.3769 92.0164 19.167 92.8198 19.1684C93.6231 19.1699 94.4119 19.3827 95.107 19.7854C95.8021 20.1881 96.379 20.7667 96.7798 21.4629C97.1696 22.1354 97.2911 22.915 97.3381 23.756L97.3946 24.8989V32.92L97.4512 34.0678C97.5691 35.9518 98.9406 37.3378 100.835 37.4461L101.977 37.5026V23.756C101.977 21.3252 101.012 18.9939 99.2934 17.2748C97.5749 15.5556 95.244 14.5893 92.8132 14.5883C91.5122 14.587 90.2259 14.8633 89.0402 15.3987C87.8544 15.9342 86.7967 16.7166 85.9375 17.6936C85.0779 16.717 84.0201 15.9348 82.8345 15.3992C81.6489 14.8635 80.3627 14.5867 79.0618 14.5871C77.1585 14.5871 75.3923 15.1646 73.9293 16.162C73.0366 15.1658 71.0395 14.5871 69.8929 14.5871V37.5026L71.0395 37.4461C72.9572 37.3197 74.3432 35.9711 74.4178 34.0678L74.4791 32.92V24.9025L74.5357 23.756C74.5838 22.8909 74.7041 22.1306 75.0951 21.4532C75.4988 20.7589 76.0776 20.1826 76.7736 19.782C77.4697 19.3813 78.2586 19.1702 79.0618 19.1698C79.8655 19.1699 80.6551 19.3814 81.3513 19.7831C82.0475 20.1847 82.6259 20.7623 83.0284 21.4581ZM4.58261 37.4473L5.72917 37.5026H22.9155L22.8589 36.3597C22.7037 34.4756 21.3695 33.0993 19.4794 32.9765L18.3328 32.92H8.02228L21.7689 19.1686L21.7124 18.0268C21.6233 16.1235 20.2325 14.7484 18.3328 14.6437L17.1863 14.592L0 14.5871L0.0565457 15.7337C0.206933 17.5997 1.56042 19.0049 3.43485 19.1132L4.58261 19.1698H14.8932L1.14655 32.9212L1.2031 34.0678C1.31619 35.9566 2.67931 37.3246 4.58261 37.4461V37.4473ZM65.3945 17.9414C66.4587 19.0053 67.3028 20.2684 67.8788 21.6587C68.4547 23.0489 68.7511 24.5389 68.7511 26.0437C68.7511 27.5485 68.4547 29.0385 67.8788 30.4287C67.3028 31.8189 66.4587 33.082 65.3945 34.146C63.2446 36.2942 60.3297 37.5009 57.2905 37.5009C54.2512 37.5009 51.3363 36.2942 49.1864 34.146C44.712 29.6716 44.712 22.4157 49.1864 17.9414C50.2495 16.8778 51.5118 16.0341 52.9011 15.4584C54.2903 14.8826 55.7794 14.5862 57.2832 14.5859C58.7895 14.5849 60.2812 14.8808 61.673 15.4568C63.0649 16.0328 64.3295 16.8775 65.3945 17.9426V17.9414ZM62.1522 21.1862C63.441 22.4759 64.1649 24.2246 64.1649 26.0479C64.1649 27.8712 63.441 29.6199 62.1522 30.9096C60.8624 32.1984 59.1137 32.9223 57.2905 32.9223C55.4672 32.9223 53.7185 32.1984 52.4287 30.9096C51.1399 29.6199 50.416 27.8712 50.416 26.0479C50.416 24.2246 51.1399 22.4759 52.4287 21.1862C53.7185 19.8974 55.4672 19.1734 57.2905 19.1734C59.1137 19.1734 60.8624 19.8974 62.1522 21.1862ZM33.2357 14.5859C34.7396 14.5863 36.2287 14.883 37.618 15.4589C39.0072 16.0348 40.2694 16.8788 41.3325 17.9426C45.8081 22.4157 45.8081 29.6728 41.3325 34.146C39.1826 36.2942 36.2677 37.5009 33.2284 37.5009C30.1892 37.5009 27.2743 36.2942 25.1244 34.146C20.65 29.6716 20.65 22.4157 25.1244 17.9414C26.1875 16.8778 27.4498 16.0341 28.8391 15.4584C30.2283 14.8826 31.7174 14.5862 33.2212 14.5859H33.2357ZM38.0902 21.1837C39.3793 22.4735 40.1035 24.2225 40.1035 26.0461C40.1035 27.8697 39.3793 29.6186 38.0902 30.9084C36.8004 32.1972 35.0517 32.9211 33.2284 32.9211C31.4051 32.9211 29.6565 32.1972 28.3667 30.9084C27.0779 29.6187 26.354 27.87 26.354 26.0467C26.354 24.2234 27.0779 22.4747 28.3667 21.1849C29.6565 19.8962 31.4051 19.1722 33.2284 19.1722C35.0517 19.1722 36.8004 19.8962 38.0902 21.1849V21.1837Z" fill="#E6E6E6"/>
</svg>
