<svg width="100" height="50" viewBox="0 0 100 50" fill="none" xmlns="http://www.w3.org/2000/svg">
<path d="M0.000976562 36.8698L10.266 20.8971H1.21701C1.14032 20.437 1.10745 19.9331 1.10745 19.3744C1.10745 18.8375 1.14032 18.3446 1.21701 17.8954H15.8641L16.0504 18.3884L5.70864 34.394H15.404C15.4807 34.8979 15.5136 35.4238 15.5136 35.9496C15.5136 36.4535 15.4807 36.9356 15.404 37.3957H0.187215L0.000976562 36.8698Z" fill="#E6E6E6"/>
<path d="M29.624 24.5454C29.624 23.0446 29.2405 22.0148 28.4846 21.4232C27.7287 20.8426 26.6222 20.5468 25.1761 20.5468C24.2888 20.5468 23.4562 20.6125 22.6893 20.7549C21.9115 20.8973 21.1665 21.0726 20.4216 21.3027C19.9395 20.4701 19.6985 19.4622 19.6985 18.301C20.564 18.0271 21.5061 17.808 22.5469 17.6546C23.5876 17.5012 24.5846 17.4245 25.5486 17.4245C28.0793 17.4245 30.0074 18.0052 31.333 19.1555C32.6476 20.3058 33.3159 22.1572 33.3159 24.6878V36.892C32.4285 37.0892 31.3549 37.3083 30.0841 37.5164C28.8133 37.7355 27.5205 37.8341 26.2059 37.8341C24.968 37.8341 23.8396 37.7246 22.8427 37.4945C21.8457 37.2644 20.9912 36.9029 20.2901 36.388C19.589 35.8841 19.0522 35.2377 18.6687 34.4489C18.2853 33.6602 18.0991 32.7071 18.0991 31.6006C18.0991 30.516 18.3182 29.552 18.7673 28.7303C19.2055 27.9087 19.8081 27.2185 20.5749 26.6817C21.3309 26.1339 22.2073 25.7286 23.2042 25.4657C24.1902 25.2027 25.2309 25.0603 26.3264 25.0603C27.1371 25.0603 27.8054 25.0822 28.3203 25.1151C28.8352 25.148 29.2734 25.2027 29.6349 25.2466V24.5454H29.624ZM29.624 28.2373C29.2405 28.1826 28.7585 28.1387 28.1779 28.084C27.5972 28.0292 27.1042 28.0073 26.6989 28.0073C25.1214 28.0073 23.9272 28.3031 23.1056 28.8837C22.284 29.4643 21.8677 30.3517 21.8677 31.5458C21.8677 32.3017 22.0101 32.9043 22.284 33.3315C22.5578 33.7588 22.9084 34.0874 23.3247 34.3175C23.741 34.5475 24.2011 34.69 24.716 34.7338C25.22 34.7886 25.702 34.8105 26.1621 34.8105C26.7427 34.8105 27.3453 34.7776 27.9697 34.7119C28.5942 34.6461 29.1419 34.5585 29.624 34.427V28.2373Z" fill="#E6E6E6"/>
<path d="M37.424 17.8962C37.6759 17.8414 37.9389 17.8086 38.2018 17.7867C38.4647 17.7648 38.7386 17.7538 39.0234 17.7538C39.2754 17.7538 39.5383 17.7648 39.8232 17.7867C40.0971 17.8086 40.3709 17.8524 40.6229 17.8962C40.6448 17.951 40.6777 18.1044 40.7215 18.3673C40.7544 18.6302 40.7982 18.9151 40.8311 19.2218C40.8639 19.5286 40.9077 19.8134 40.9406 20.0982C40.9735 20.3831 40.9954 20.5583 40.9954 20.635C41.2474 20.2297 41.5541 19.8353 41.9047 19.4519C42.2552 19.0684 42.6825 18.7288 43.1755 18.4221C43.6685 18.1153 44.2272 17.8743 44.8516 17.699C45.4761 17.5237 46.1662 17.4361 46.9221 17.4361C48.0615 17.4361 49.1241 17.6223 50.0992 18.0058C51.0742 18.3892 51.9068 18.9698 52.6079 19.7696C53.309 20.5693 53.8458 21.5881 54.2402 22.8151C54.6346 24.0421 54.8318 25.4991 54.8318 27.1753C54.8318 30.5276 53.9225 33.1459 52.1149 35.0302C50.2964 36.9145 47.7328 37.8676 44.4134 37.8676C43.8547 37.8676 43.285 37.8347 42.7044 37.758C42.1238 37.6814 41.6089 37.5828 41.1816 37.4513V46.3908C40.8749 46.4455 40.5572 46.4784 40.2066 46.5003C39.867 46.5222 39.5493 46.5332 39.2754 46.5332C39.0015 46.5332 38.6838 46.5222 38.3442 46.5003C38.0046 46.4784 37.6869 46.4346 37.413 46.3908V17.8962H37.424ZM41.1926 34.2086C41.6746 34.3838 42.1676 34.5153 42.6715 34.592C43.1755 34.6687 43.8328 34.7015 44.6544 34.7015C45.5637 34.7015 46.4073 34.5591 47.1632 34.2633C47.9191 33.9675 48.5764 33.5184 49.1241 32.9158C49.6719 32.3023 50.0992 31.5355 50.4169 30.6152C50.7346 29.695 50.8879 28.5885 50.8879 27.3287C50.8879 25.302 50.5155 23.6915 49.7705 22.4974C49.0256 21.3033 47.7986 20.7117 46.1005 20.7117C45.4651 20.7117 44.8626 20.8213 44.271 21.0513C43.6904 21.2814 43.1645 21.621 42.7154 22.0811C42.2552 22.5412 41.8937 23.1109 41.6089 23.812C41.324 24.5132 41.1926 25.3348 41.1926 26.2989V34.2086Z" fill="#E6E6E6"/>
<path d="M59.5206 20.8533H57.0448C56.99 20.6452 56.9571 20.4151 56.9352 20.1522C56.9133 19.8892 56.9023 19.6263 56.9023 19.3744C56.9023 19.1224 56.9133 18.8595 56.9352 18.5965C56.9571 18.3336 57.0009 18.0926 57.0448 17.8954H63.2125V37.4066C62.9387 37.4614 62.621 37.4943 62.2813 37.5162C61.9417 37.5381 61.624 37.5491 61.3501 37.5491C61.0982 37.5491 60.8024 37.5381 60.4518 37.5162C60.1122 37.4943 59.7945 37.4505 59.5206 37.4066V20.8533Z" fill="#E6E6E6"/>
<path d="M71.3084 28.5772C71.3632 30.7025 71.911 32.2691 72.9627 33.2551C74.0144 34.2411 75.57 34.7341 77.6186 34.7341C79.4153 34.7341 81.1353 34.4164 82.7566 33.781C82.9648 34.1644 83.1291 34.6245 83.2496 35.1723C83.3811 35.72 83.4468 36.2568 83.4797 36.7936C82.6471 37.1442 81.7268 37.4181 80.719 37.5934C79.722 37.7687 78.6046 37.8563 77.3886 37.8563C75.6138 37.8563 74.091 37.6043 72.8202 37.1113C71.5494 36.6184 70.5087 35.9172 69.687 35.0189C68.8654 34.1206 68.2629 33.0579 67.8794 31.82C67.496 30.593 67.3098 29.2455 67.3098 27.7665C67.3098 26.3204 67.496 24.973 67.8575 23.7131C68.2191 22.4533 68.7887 21.3687 69.5446 20.4375C70.3005 19.5173 71.2646 18.7723 72.4149 18.2355C73.5652 17.6877 74.9346 17.4139 76.5012 17.4139C77.8487 17.4139 79.0209 17.6439 80.0397 18.104C81.0586 18.5642 81.9021 19.1886 82.5923 19.9883C83.2715 20.7881 83.7974 21.7412 84.1479 22.8367C84.4985 23.9432 84.6847 25.1373 84.6847 26.43C84.6847 26.7806 84.6738 27.164 84.6409 27.5474C84.619 27.9418 84.5861 28.2814 84.5642 28.5553H71.3084V28.5772ZM80.9709 25.7617C80.9709 25.0496 80.8723 24.3704 80.6861 23.7241C80.4998 23.0777 80.215 22.519 79.8535 22.037C79.481 21.5549 79.0209 21.1715 78.4512 20.8757C77.8816 20.5799 77.2023 20.4375 76.4136 20.4375C74.8689 20.4375 73.6857 20.9086 72.8531 21.8398C72.0315 22.7819 71.5275 24.0856 71.3522 25.7617H80.9709Z" fill="#E6E6E6"/>
<path d="M88.8478 17.8954C89.1217 17.8406 89.3956 17.8078 89.6475 17.7858C89.8995 17.7639 90.1624 17.753 90.4473 17.753C90.7211 17.753 91.006 17.7639 91.2799 17.7858C91.5537 17.8078 91.8167 17.8516 92.0358 17.8954C92.1124 18.2788 92.1891 18.7718 92.2658 19.3963C92.3425 20.0207 92.3754 20.5466 92.3754 20.9738C92.9122 20.1084 93.6133 19.3634 94.4897 18.728C95.3661 18.0926 96.4836 17.7749 97.853 17.7749C98.0611 17.7749 98.2693 17.7858 98.4774 17.7968C98.6965 17.8078 98.8718 17.8297 99.0252 17.8516C99.08 18.0816 99.1128 18.3227 99.1347 18.5746C99.1567 18.8266 99.1676 19.0895 99.1676 19.3744C99.1676 19.6811 99.1457 19.9988 99.1128 20.3275C99.08 20.6561 99.0252 20.9738 98.9814 21.2806C98.7732 21.2258 98.5651 21.2039 98.3569 21.2039C98.1378 21.2039 97.9735 21.2039 97.842 21.2039C97.1628 21.2039 96.5055 21.3025 95.881 21.4887C95.2566 21.675 94.6979 22.0146 94.2049 22.4966C93.7119 22.9786 93.3175 23.6359 93.0217 24.4795C92.7259 25.3121 92.5835 26.3967 92.5835 27.7113V37.4067C92.3096 37.4614 91.9919 37.4943 91.6523 37.5162C91.3127 37.5381 90.995 37.5491 90.7211 37.5491C90.4473 37.5491 90.1296 37.5381 89.7899 37.5162C89.4503 37.4943 89.1217 37.4505 88.8149 37.4067V17.8954H88.8478Z" fill="#E6E6E6"/>
<path d="M66.7947 6.41476H63.1138L65.7211 3.80741C65.513 3.52258 65.2829 3.2487 65.0419 2.99673C64.7899 2.74476 64.527 2.5147 64.2312 2.3175L61.6239 4.92485V1.24389C61.2843 1.18912 60.9337 1.15625 60.5722 1.15625H60.5612C60.1997 1.15625 59.8491 1.18912 59.5095 1.24389V4.92485L56.9022 2.3175C56.6173 2.52565 56.3435 2.75571 56.0915 2.99673C55.8395 3.2487 55.6204 3.51162 55.4123 3.80741L58.0306 6.41476H54.3496C54.3496 6.41476 54.262 7.10493 54.262 7.46646C54.262 7.82798 54.2948 8.17855 54.3496 8.51816H58.0306L55.4232 11.1255C55.8286 11.6952 56.3325 12.1991 56.9131 12.6154L59.5205 10.0081V13.689C59.8601 13.7438 60.2107 13.7767 60.5722 13.7767H60.5831C60.9447 13.7767 61.2952 13.7438 61.6348 13.689V10.0081L64.2422 12.6154C64.527 12.4073 64.8009 12.1772 65.0529 11.9362C65.3048 11.6842 65.5349 11.4213 65.7321 11.1255L63.1247 8.51816H66.8057C66.8605 8.17855 66.8933 7.82798 66.8933 7.46646V7.4555C66.8824 7.10493 66.8605 6.75437 66.7947 6.41476ZM62.1497 7.47741C62.1497 7.94849 62.0621 8.39765 61.9087 8.81395C61.4924 8.96732 61.0433 9.05496 60.5722 9.05496C60.1011 9.05496 59.6519 8.96732 59.2356 8.81395C59.0823 8.39765 58.9946 7.94849 58.9946 7.47741V7.46646C58.9946 6.99538 59.0823 6.54622 59.2356 6.12992C59.6519 5.97655 60.1011 5.88891 60.5722 5.88891C61.0433 5.88891 61.4924 5.97655 61.9087 6.12992C62.0621 6.54622 62.1497 6.99538 62.1497 7.47741Z" fill="#E6E6E6"/>
</svg>
